<?xml version="1.0" encoding="UTF-8"?>
<svg id="_Слой_1" data-name="Слой_1" xmlns="http://www.w3.org/2000/svg" version="1.1" viewBox="0 0 52.5 60.75">
  <!-- Generator: Adobe Illustrator 30.1.0, SVG Export Plug-In . SVG Version: 2.1.1 Build 136)  -->
  <defs>
    <style>
      .st0 {
        fill: #fff;
      }

      .st1 {
        fill: #2c8503;
      }
    </style>
  </defs>
  <path class="st1" d="M27.46,10.18l.39.08s.05-.08.07-.08c4.53-.05,9.59,2.63,12.76,5.81,3.37,3.38,5.7,8.02,5.81,12.83v3.16c-.11,4.75-2.4,9.39-5.74,12.77s-8.09,5.76-12.9,5.87h-3.16c-3.52-.05-7.04-1.4-9.92-3.39-3.11-2.14-5.6-5.11-7.14-8.55-.98-2.2-1.47-4.22-1.58-6.57,0-.07,0-.11.08-.13l-.08-.39c-.07-.74-.06-1.61,0-2.37l.08-.39c-.08-.03-.09-.07-.08-.13.11-2.31.58-4.3,1.54-6.47,1.69-3.84,4.55-7.09,8.14-9.27,2.55-1.55,5.92-2.8,8.9-2.77.02,0,.05.04.07.08l.39-.08c.74-.07,1.61-.06,2.37,0Z"/>
  <path class="st0" d="M15.59,31.26c-.83-.79-.83-1.93-.13-2.7s2.04-.93,2.86-.15l5.25,4.99,11.73-11.22c.82-.78,2.06-.75,2.84-.04s.86,1.98.02,2.78l-13.14,12.58c-.8.76-2.06.81-2.86.04l-6.57-6.28Z"/>
  <path class="st1" d="M25.09,10.18c-.11.11-.26.08-.39.08.08-.14.26-.07.39-.08Z"/>
  <path class="st1" d="M27.85,10.26c-.13,0-.32.05-.39-.08.13,0,.32-.05.39.08Z"/>
  <path class="st1" d="M6.06,29.21c0-.13-.05-.32.08-.39,0,.13.04.32-.08.39Z"/>
  <path class="st1" d="M6.13,31.98c-.13-.08-.08-.26-.08-.39.12.07.09.27.08.39Z"/>
</svg>