<?xml version="1.0" encoding="UTF-8"?>
<svg id="_Слой_1" data-name="Слой_1" xmlns="http://www.w3.org/2000/svg" version="1.1" viewBox="0 0 52.5 60.75">
  <!-- Generator: Adobe Illustrator 30.1.0, SVG Export Plug-In . SVG Version: 2.1.1 Build 136)  -->
  <defs>
    <style>
      .st0 {
        fill: #d42d2e;
      }

      .st1 {
        fill: none;
        stroke: #d42d2e;
        stroke-miterlimit: 10;
        stroke-width: 1.2px;
      }

      .st2 {
        fill: #2c8503;
      }
    </style>
  </defs>
  <path class="st2" d="M-24.47,28.81c0-.13-.05-.32.08-.39,0,.13.04.32-.08.39Z"/>
  <rect class="st1" x="-47.81" y="2.42" width="13.42" height="17.08" rx="-10.49" ry="-10.49"/>
  <rect class="st0" x="-45.47" y="5.92" width="8.67" height="1.47" rx="-14.06" ry="-14.06"/>
  <rect class="st0" x="-45.47" y="9.59" width="8.67" height="1.47" rx="-14.06" ry="-14.06"/>
  <rect class="st0" x="-45.47" y="13.33" width="5.87" height="1.47" rx="-16.86" ry="-16.86"/>
  <path class="st1" d="M26.68,22.14l1.81,5.56c.06.19.23.31.43.31h5.84c.44,0,.62.56.27.82l-4.73,3.44c-.16.12-.22.32-.16.51l1.81,5.56c.14.42-.34.76-.7.51l-4.73-3.44c-.16-.12-.37-.12-.53,0l-4.73,3.44c-.35.26-.83-.09-.7-.51l1.81-5.56c.06-.19,0-.39-.16-.51l-4.73-3.44c-.35-.26-.17-.82.27-.82h5.84c.2,0,.37-.13.43-.31l1.81-5.56c.14-.42.72-.42.86,0Z"/>
</svg>